<!-- Generator: Adobe Illustrator 19.0.0, SVG Export Plug-In  -->
<svg version="1.1"
	 xmlns="http://www.w3.org/2000/svg" xmlns:xlink="http://www.w3.org/1999/xlink" xmlns:a="http://ns.adobe.com/AdobeSVGViewerExtensions/3.0/"
	 x="0px" y="0px" width="452.293px" height="116.872px" viewBox="0 0 452.293 116.872"
	 style="enable-background:new 0 0 452.293 116.872;" xml:space="preserve">
<style type="text/css">
	.st0{fill:#BB883F;}
</style>
<defs>
</defs>
<g id="XMLID_15_">
	<path id="XMLID_45_" class="st0" d="M37.497,63.883c0,10.623-0.766,19.936-2.298,27.94c-1.532,8.004-3.725,14.181-6.577,18.528
		c-2.853,4.347-6.124,6.522-9.813,6.522c-3.649,0-6.905-2.149-9.767-6.448c-2.863-4.298-5.08-10.438-6.653-18.416
		S0.02,74.852,0,64.476V59.14c0-10.623,0.781-19.973,2.344-28.051c1.562-8.078,3.77-14.278,6.622-18.602
		c2.852-4.324,6.113-6.485,9.783-6.485c3.669,0,6.93,2.161,9.782,6.485c2.852,4.324,5.06,10.524,6.622,18.602
		c1.562,8.078,2.344,17.404,2.344,27.977V63.883z M28.304,58.992c0-11.313-0.827-19.91-2.48-25.79
		c-1.653-5.88-4.012-8.819-7.076-8.819c-3.044,0-5.393,2.902-7.046,8.708c-1.653,5.806-2.49,14.315-2.51,25.531v5.262
		c0,11.017,0.826,19.565,2.48,25.642c1.653,6.077,4.032,9.116,7.137,9.116c3.044,0,5.383-2.927,7.016-8.782
		c1.633-5.855,2.459-14.389,2.48-25.605V58.992z"/>
	<path id="XMLID_43_" class="st0" d="M52.738,115.39h-8.769V1.556h8.769V115.39z"/>
	<path id="XMLID_40_" class="st0" d="M58.574,74.703c0-12.499,1.144-22.455,3.432-29.867c2.288-7.411,5.418-11.117,9.389-11.117
		c3.185,0,5.816,2.916,7.893,8.745V1.556h8.769V115.39h-7.893l-0.423-8.523c-2.177,6.67-4.98,10.005-8.407,10.005
		c-3.851,0-6.94-3.717-9.268-11.154C59.738,98.282,58.574,87.944,58.574,74.703z M67.313,76.297c0,7.522,0.534,13.287,1.603,17.296
		c1.068,4.009,2.62,6.012,4.657,6.012c2.701,0,4.606-2.795,5.715-8.388V59.522c-1.089-5.591-2.974-8.386-5.655-8.386
		C69.42,51.136,67.313,59.522,67.313,76.297z"/>
	<path id="XMLID_38_" class="st0" d="M142.156,25.494h-13.487v89.896h-9.072V25.494h-13.305V7.485h35.864V25.494z"/>
	<path id="XMLID_35_" class="st0" d="M139.102,74.555c0-7.955,0.625-15.044,1.875-21.27c1.25-6.225,3.049-11.042,5.398-14.452
		c2.348-3.409,5.075-5.114,8.18-5.114c4.415,0,8.018,3.309,10.811,9.931c2.792,6.621,4.349,15.612,4.672,26.976l0.06,5.484
		c0,12.302-1.401,22.171-4.203,29.607c-2.802,7.437-6.562,11.154-11.279,11.154c-4.717,0-8.482-3.706-11.294-11.117
		c-2.812-7.411-4.218-17.49-4.218-30.237V74.555z M147.841,76.074c0,7.622,0.584,13.449,1.754,17.481
		c1.169,4.032,2.843,6.049,5.02,6.049c2.117,0,3.77-1.992,4.959-5.975c1.189-3.983,1.784-10.355,1.784-19.114
		c0-7.471-0.595-13.261-1.784-17.367c-1.19-4.106-2.863-6.16-5.02-6.16c-2.137,0-3.79,2.04-4.959,6.123
		C148.426,61.194,147.841,67.515,147.841,76.074z"/>
	<path id="XMLID_33_" class="st0" d="M203.936,86.265l4.294-51.062h8.437l-8.346,80.187h-7.318l-6.199-50.469l-6.199,50.469h-7.288
		l-8.346-80.187h8.437l4.264,50.988l5.987-50.988h6.32L203.936,86.265z"/>
	<path id="XMLID_31_" class="st0" d="M229.034,35.202l0.272,9.264c2.338-7.163,5.473-10.746,9.405-10.746
		c3.467,0,6.048,2.494,7.741,7.485c1.693,4.991,2.56,12.451,2.601,22.381v51.803h-8.739V64.106c0-4.546-0.404-7.844-1.21-9.894
		c-0.807-2.05-2.147-3.076-4.022-3.076c-2.46,0-4.304,2.568-5.534,7.707v56.546h-8.739V35.202H229.034z"/>
	<path id="XMLID_29_" class="st0" d="M306.236,79.446c-0.343,11.61-2.092,20.751-5.247,27.421
		c-3.155,6.67-7.313,10.005-12.474,10.005c-5.645,0-10.085-4.657-13.321-13.97c-3.236-9.312-4.853-22.096-4.853-38.352v-6.596
		c0-10.375,0.746-19.517,2.238-27.421c1.491-7.904,3.623-13.97,6.396-18.194c2.772-4.224,5.992-6.336,9.662-6.336
		c5.08,0,9.172,3.335,12.277,10.005c3.104,6.67,4.899,16.033,5.383,28.088h-9.072c-0.222-6.966-1.013-12.017-2.374-15.156
		s-3.432-4.706-6.214-4.706c-3.024,0-5.287,2.656-6.789,7.967c-1.503,5.31-2.274,13.551-2.313,24.716v8.152
		c0,11.661,0.72,20.184,2.162,25.568c1.441,5.385,3.714,8.078,6.819,8.078c2.802,0,4.893-1.568,6.275-4.706
		c1.381-3.138,2.172-7.992,2.374-14.563H306.236z"/>
	<path id="XMLID_26_" class="st0" d="M310.258,74.555c0-7.955,0.625-15.044,1.875-21.27c1.249-6.225,3.049-11.042,5.398-14.452
		c2.348-3.409,5.075-5.114,8.18-5.114c4.415,0,8.018,3.309,10.811,9.931c2.791,6.621,4.349,15.612,4.672,26.976l0.06,5.484
		c0,12.302-1.401,22.171-4.203,29.607c-2.803,7.437-6.562,11.154-11.279,11.154s-8.482-3.706-11.294-11.117
		c-2.812-7.411-4.218-17.49-4.218-30.237V74.555z M318.997,76.074c0,7.622,0.584,13.449,1.754,17.481
		c1.169,4.032,2.843,6.049,5.02,6.049c2.117,0,3.77-1.992,4.959-5.975c1.189-3.983,1.784-10.355,1.784-19.114
		c0-7.471-0.595-13.261-1.784-17.367c-1.19-4.106-2.863-6.16-5.02-6.16c-2.138,0-3.79,2.04-4.959,6.123
		C319.581,61.194,318.997,67.515,318.997,76.074z"/>
	<path id="XMLID_24_" class="st0" d="M349.025,115.39V50.914h-4.869V35.202h4.869v-6.818c0-8.993,1.053-15.971,3.16-20.936
		C354.291,2.483,357.24,0,361.03,0c1.21,0,2.691,0.493,4.445,1.482l-0.091,16.601c-0.726-0.445-1.613-0.667-2.661-0.667
		c-3.287,0-4.929,3.78-4.929,11.339v6.448h6.501v15.711h-6.501v64.476H349.025z"/>
	<path id="XMLID_22_" class="st0" d="M371.221,115.39V50.914h-4.869V35.202h4.869v-6.818c0-8.993,1.053-15.971,3.16-20.936
		C376.487,2.483,379.436,0,383.226,0c1.21,0,2.691,0.493,4.445,1.482l-0.091,16.601c-0.726-0.445-1.613-0.667-2.661-0.667
		c-3.287,0-4.929,3.78-4.929,11.339v6.448h6.501v15.711h-6.501v64.476H371.221z"/>
	<path id="XMLID_19_" class="st0" d="M405.361,116.872c-4.799,0-8.704-3.606-11.718-10.82c-3.014-7.214-4.521-16.823-4.521-28.829
		v-2.075c0-8.053,0.635-15.255,1.905-21.603s3.069-11.239,5.398-14.674c2.328-3.435,4.984-5.151,7.968-5.151
		c4.475,0,7.998,3.458,10.569,10.375c2.57,6.918,3.856,16.723,3.856,29.422v8.745h-20.835c0.282,5.236,1.134,9.438,2.555,12.599
		c1.421,3.161,3.221,4.743,5.398,4.743c3.366,0,5.997-2.99,7.893-8.967l4.294,11.784c-1.311,4.546-3.084,8.09-5.322,10.635
		C410.563,115.598,408.083,116.872,405.361,116.872z M404.363,50.988c-1.734,0-3.14,1.438-4.218,4.317
		c-1.079,2.879-1.769,6.999-2.071,12.358h12.156v-1.714c-0.041-4.764-0.565-8.449-1.572-11.054
		C407.649,52.29,406.218,50.988,404.363,50.988z"/>
	<path id="XMLID_16_" class="st0" d="M438.837,116.872c-4.799,0-8.704-3.606-11.718-10.82c-3.014-7.214-4.521-16.823-4.521-28.829
		v-2.075c0-8.053,0.635-15.255,1.905-21.603c1.27-6.348,3.069-11.239,5.398-14.674c2.328-3.435,4.984-5.151,7.968-5.151
		c4.475,0,7.998,3.458,10.569,10.375s3.856,16.723,3.856,29.422v8.745h-20.835c0.282,5.236,1.134,9.438,2.555,12.599
		c1.421,3.161,3.221,4.743,5.398,4.743c3.366,0,5.997-2.99,7.893-8.967l4.294,11.784c-1.311,4.546-3.084,8.09-5.322,10.635
		C444.038,115.598,441.558,116.872,438.837,116.872z M437.839,50.988c-1.734,0-3.14,1.438-4.218,4.317
		c-1.079,2.879-1.769,6.999-2.071,12.358h12.156v-1.714c-0.041-4.764-0.565-8.449-1.572-11.054
		C441.124,52.29,439.693,50.988,437.839,50.988z"/>
</g>
</svg>